<svg xmlns="http://www.w3.org/2000/svg" width="322" height="48" viewBox="0 0 322 48">
  <g id="UAEPASS_Sign_in_Btn_Outline_Default_White_Focus" transform="translate(-3 -3)">
    <rect id="Rectangle" width="322" height="48" rx="12" transform="translate(3 3)" fill="none"/>
    <g id="UAEPASS_Sign_in_Btn_Outline_Default_Focus" transform="translate(5 5)">
      <g id="Border" transform="translate(0 0)">
        <path id="Path_18085" data-name="Path 18085" d="M12.711,0H305.054c7.019,0,12.711,5.373,12.711,12V32c0,6.627-5.691,12-12.711,12H12.711C5.691,44,0,38.627,0,32V12C0,5.373,5.691,0,12.711,0Z" transform="translate(0 0)"/>
        <path id="Path_18086" data-name="Path 18086" d="M305.081.5H12.683A12.517,12.517,0,0,0,4.068,3.868,11.151,11.151,0,0,0,.5,12V32a11.151,11.151,0,0,0,3.568,8.132A12.517,12.517,0,0,0,12.683,43.5h292.4a12.517,12.517,0,0,0,8.615-3.368A11.151,11.151,0,0,0,317.265,32V12A11.151,11.151,0,0,0,313.7,3.868,12.517,12.517,0,0,0,305.081.5Z" fill="#fff" stroke="#231f20" stroke-width="1" fill-rule="evenodd"/>
      </g>
      <g id="Logo_Text" data-name="Logo+Text" transform="translate(30 7)">
        <text id="Sign-in-with-UAE-PAS" transform="translate(28.561 21)" font-size="19" font-family="SegoeUI-Semibold, Segoe UI" font-weight="600"><tspan x="0" y="0">Sign in with UAE PASS</tspan></text>
        <g id="UAEPASS_Logo" transform="translate(0 3)">
          <g id="Logo">
            <path id="Fill-5" d="M11.569,23.111h0l-.007,0-.021-.012a12.665,12.665,0,0,1-1.72-1.4l0,0h0a.656.656,0,0,0-.16-.092.677.677,0,0,0-.87.369.634.634,0,0,0,.035.546l.008.032a5.837,5.837,0,0,0,2.151,1.64.634.634,0,0,0,.815-.345.6.6,0,0,0-.229-.729" transform="translate(0 0)" fill="#e82227" fill-rule="evenodd"/>
            <path id="Fill-1" d="M6.378,2.782a12.517,12.517,0,0,1,11.918,0c.441.214.894.363,1.155-.192.229-.486-.112-.751-.528-.962A14.608,14.608,0,0,0,12.206,0,13.106,13.106,0,0,0,5.775,1.622c-.423.228-.822.5-.5,1.036.281.471.7.339,1.108.124" transform="translate(0 0)" fill="#1d1d1a" fill-rule="evenodd"/>
            <path id="Fill-3" d="M5.091,20.259a.654.654,0,1,0,.671.654.663.663,0,0,0-.671-.654" transform="translate(0 0)" fill="#1d1d1a" fill-rule="evenodd"/>
            <path id="Fill-8" d="M13.82,9.261a.671.671,0,1,0-.671.654.663.663,0,0,0,.671-.654" transform="translate(0 0)" fill="#1d1d1a" fill-rule="evenodd"/>
            <path id="Fill-10" d="M21.027,18.767a.654.654,0,1,0,.67.654.663.663,0,0,0-.67-.654" transform="translate(0 0)" fill="#1d1d1a" fill-rule="evenodd"/>
            <path id="Fill-12" d="M15.981,16.112a.654.654,0,1,0,.671.654.663.663,0,0,0-.671-.654" transform="translate(0 0)" fill="#1d1d1a" fill-rule="evenodd"/>
            <path id="Fill-14" d="M15.981,16.112a.654.654,0,1,0,.671.654.663.663,0,0,0-.671-.654" transform="translate(0 0)" fill="#1d1d1a" fill-rule="evenodd"/>
            <path id="Fill-16" d="M24.062,11.81a.654.654,0,1,0,.671.654.663.663,0,0,0-.671-.654" transform="translate(0 0)" fill="#1d1d1a" fill-rule="evenodd"/>
            <path id="Fill-18" d="M23.738,10.321a.671.671,0,1,0-.671.654.663.663,0,0,0,.671-.654" transform="translate(0 0)" fill="#1d1d1a" fill-rule="evenodd"/>
            <path id="Fill-20" d="M3.737,4.659A.654.654,0,1,0,3.066,4a.663.663,0,0,0,.671.654" transform="translate(0 0)" fill="#1d1d1a" fill-rule="evenodd"/>
            <path id="Fill-22" d="M1.255,10.408a.671.671,0,0,0-.582.335h0l-.008.019a.628.628,0,0,0-.055.139A10.128,10.128,0,0,0,0,13.917a.663.663,0,0,0,.67.654.667.667,0,0,0,.651-.5h0a.018.018,0,0,1,0,0,.648.648,0,0,0,.018-.146.629.629,0,0,0-.007-.067,8.486,8.486,0,0,1,.537-2.53h0a.637.637,0,0,0,.054-.258.663.663,0,0,0-.671-.654" transform="translate(0 0)" fill="#1d1d1a" fill-rule="evenodd"/>
            <path id="Fill-24" d="M8.982,6.348c-5.511,2.146-6.932,7.279-5.435,12.3a.643.643,0,0,0,.037.127.671.671,0,0,0,.621.408.7.7,0,0,0,.118-.011.677.677,0,0,0,.225-.083.637.637,0,0,0,.315-.684c0-.011-.006-.021-.009-.032-.132-.474-.259-.949-.356-1.43-1.071-5.328,2.519-9.9,7.786-9.9,4.838,0,8.092,2.948,8.092,7.383,0,1.765-.721,2.644-2,2.618h-.011c-.025,0-.05,0-.074,0l-.008.009a.648.648,0,0,0-.089,1.274.24.24,0,0,0,.033.011h0l.017,0,.052.005c.023,0,.046.007.07.007l.025,0c.135,0,.3,0,.3,0,2.1-.162,2.855-1.869,2.855-4.334,0-6.146-6.712-9.948-12.566-7.668" transform="translate(0 0)" fill="#1d1d1a" fill-rule="evenodd"/>
            <path id="Fill-26" d="M9.294,4.594c.028,0,.053-.015.08-.022l-.083.022h0" transform="translate(0 0)" fill="#00aeef" fill-rule="evenodd"/>
            <path id="Fill-28" d="M9.825,3.829c0-.011-.006-.021-.008-.031a.657.657,0,0,0-.639-.489.676.676,0,0,0-.118.012l-.149.044A12.768,12.768,0,0,0,6.027,4.659,11.318,11.318,0,0,0,2.7,7.561c-.151.19-.421.439-.6.707a.641.641,0,0,0-.164.36.54.54,0,0,0,.182.526l.02.019c.024.021.049.042.077.063l.009.006h0c.713.514,1.166-.458,1.484-.859a9.767,9.767,0,0,1,5.582-3.8l.047-.012a.678.678,0,0,0,.177-.07.638.638,0,0,0,.323-.55.629.629,0,0,0-.013-.123" transform="translate(0 0)" fill="#1d1d1a" fill-rule="evenodd"/>
            <path id="Fill-30" d="M22.2,7.805a.649.649,0,0,0-.117-.155,11.951,11.951,0,0,0-9.611-4.7c-.173,0-.611,0-.662,0a.654.654,0,1,0,0,1.308,10.9,10.9,0,0,1,9.247,4.212h0c.007.011.017.022.025.032a.671.671,0,0,0,.533.263.661.661,0,0,0,.668-.652.632.632,0,0,0-.084-.31" transform="translate(0 0)" fill="#1d1d1a" fill-rule="evenodd"/>
            <g id="Group" transform="translate(14.998 9.486)">
              <path id="Fill-32" d="M3.792,4.941a4.63,4.63,0,0,0-.077-.615A6.756,6.756,0,0,0,1.113.151a.668.668,0,0,1,.231.355c0,.011.007.022.009.033a.671.671,0,0,1,.013.127.66.66,0,0,1-.334.569A.685.685,0,0,1,.8,1.32a.692.692,0,0,1-.119.012.687.687,0,0,1-.368-.107,6.12,6.12,0,0,1,2.14,3.834c.051.474.1.959.7.94.685-.022.657-.572.633-1.058" transform="translate(0 0)" fill="#1d1d1a" fill-rule="evenodd"/>
              <path id="Fill-38" d="M.8,1.32a.689.689,0,0,0,.229-.085A.66.66,0,0,0,1.366.666.657.657,0,0,0,1.353.539c0-.011-.006-.021-.009-.033A.668.668,0,0,0,1.113.151L1.087.132A.682.682,0,0,0,.683,0,.675.675,0,0,0,0,.666.626.626,0,0,0,.013.787.649.649,0,0,0,.051.916.671.671,0,0,0,.2,1.13c.04.031.08.063.119.1a.688.688,0,0,0,.368.107A.694.694,0,0,0,.8,1.32" transform="translate(0 0)" fill="#1d1d1a" fill-rule="evenodd"/>
            </g>
            <path id="Fill-34" d="M16.086,9.618l.046.034c-.015-.012-.031-.023-.046-.034" transform="translate(0 0)" fill="#00aeef" fill-rule="evenodd"/>
            <path id="Fill-36" d="M15.406,10.786c-.07-.058-.141-.115-.212-.17a1.21,1.21,0,0,0,.212.17" transform="translate(0 0)" fill="#00aeef" fill-rule="evenodd"/>
            <path id="Fill-40" d="M13,11.467H13l.006,0Z" transform="translate(0 0)" fill="#1d1d1a" fill-rule="evenodd"/>
            <path id="Fill-42" d="M15.7,22.178a10.937,10.937,0,0,1-1.107-.4,7.362,7.362,0,0,1-4.5-6.663,2.16,2.16,0,0,1,2.121-2.389l.018-.006a.682.682,0,0,0,.217-.074.633.633,0,0,0,0-1.127.671.671,0,0,0-.3-.082l-.023,0c-.015,0-.029,0-.044,0a3.486,3.486,0,0,0-3.3,2.989c-.5,3.738,2.745,8.216,6.5,8.967.428.086.816.063.947-.418.116-.422-.147-.661-.532-.8" transform="translate(0 0)" fill="#1d1d1a" fill-rule="evenodd"/>
            <path id="Fill-44" d="M15.722,14.224a.64.64,0,0,0-.037-.147,4.431,4.431,0,0,0-.593-1.416.667.667,0,0,0-.07-.092l-.013-.017,0,0a.675.675,0,0,0-.483-.2.663.663,0,0,0-.671.654.627.627,0,0,0,.034.2l0,0,.011.024a.625.625,0,0,0,.029.066,11.366,11.366,0,0,1,.4,1.128.657.657,0,0,0,.052.172.706.706,0,0,0,.98.319.684.684,0,0,0,.368-.6.654.654,0,0,0-.006-.083" transform="translate(0 0)" fill="#1d1d1a" fill-rule="evenodd"/>
            <path id="Fill-46" d="M8.517,19.887c.024.041.047.081.071.122a1.145,1.145,0,0,0-.071-.122" transform="translate(0 0)" fill="#e82227" fill-rule="evenodd"/>
            <path id="Fill-48" d="M7.341,20.508a1.116,1.116,0,0,0,.113.195l-.072-.126-.041-.069" transform="translate(0 0)" fill="#e82227" fill-rule="evenodd"/>
            <path id="Fill-50" d="M10.714,8.789a1.253,1.253,0,0,0-.3.071,6.4,6.4,0,0,0-4.6,6.326,13.127,13.127,0,0,0,1.437,5.152c.025.051.07.126.1.171l.023.038.04.071a.673.673,0,0,0,.871.2.651.651,0,0,0,.351-.573.629.629,0,0,0-.07-.286l-.04-.068A9.305,9.305,0,0,1,7.169,14.7a5.056,5.056,0,0,1,3.673-4.618.668.668,0,0,0,.542-.641.663.663,0,0,0-.67-.654" transform="translate(0 0)" fill="#00ac75" fill-rule="evenodd"/>
            <path id="Fill-52" d="M18.881,19.817a.674.674,0,0,0-.3-.084h0l-.113.009A4.859,4.859,0,0,1,13.005,15.3c-.043-.486-.027-1.054-.711-1-.63.046-.636.665-.6,1.154A6.193,6.193,0,0,0,17.934,21.1a4.8,4.8,0,0,0,.65-.051l.129-.019a.7.7,0,0,0,.163-.063.645.645,0,0,0,0-1.148" transform="translate(0 0)" fill="#1d1d1a" fill-rule="evenodd"/>
          </g>
        </g>
      </g>
    </g>
  </g>
</svg>
